<?xml version="1.0" encoding="UTF-8" standalone="no"?>
<svg
   id="emoji"
   viewBox="0 0 72 72"
   version="1.1"
   sodipodi:docname="1F916.svg"
   inkscape:version="1.2.1 (9c6d41e, 2022-07-14)"
   xmlns:inkscape="http://www.inkscape.org/namespaces/inkscape"
   xmlns:sodipodi="http://sodipodi.sourceforge.net/DTD/sodipodi-0.dtd"
   xmlns="http://www.w3.org/2000/svg"
   xmlns:svg="http://www.w3.org/2000/svg">
  <defs
     id="defs13258" />
  <sodipodi:namedview
     id="namedview13256"
     pagecolor="#ffffff"
     bordercolor="#000000"
     borderopacity="0.25"
     inkscape:showpageshadow="2"
     inkscape:pageopacity="0.0"
     inkscape:pagecheckerboard="0"
     inkscape:deskcolor="#d1d1d1"
     showgrid="false"
     inkscape:zoom="5.4689132"
     inkscape:cx="28.707715"
     inkscape:cy="31.541916"
     inkscape:window-width="1549"
     inkscape:window-height="923"
     inkscape:window-x="179"
     inkscape:window-y="38"
     inkscape:window-maximized="0"
     inkscape:current-layer="emoji" />
  <g
     id="color">
    <path
       fill="#D22F27"
       d="M34,16.1123v-2.5109c0-1.3807,1.1193-2.5,2.5-2.5l0,0c1.3807,0,2.5,1.1193,2.5,2.5v2.5"
       id="path13212"
       style="fill:#e57c79;fill-opacity:1" />
    <path
       fill="#D0CFCE"
       d="M13.5,41.1014L13.5,41.1014c-1.3807,0-2.5-1.1193-2.5-2.5v-8c0-1.3807,1.1193-2.5,2.5-2.5l0,0 c1.3807,0,2.5,1.1193,2.5,2.5v8C16,39.9821,14.8807,41.1014,13.5,41.1014z"
       id="path13214"
       style="fill:#e9e8e8;fill-opacity:1" />
    <path
       fill="#D0CFCE"
       d="M58.5,41.1014L58.5,41.1014c1.3807,0,2.5-1.1193,2.5-2.5v-8c0-1.3807-1.1193-2.5-2.5-2.5l0,0 c-1.3807,0-2.5,1.1193-2.5,2.5v8C56,39.9821,57.1193,41.1014,58.5,41.1014z"
       id="path13216" />
    <path
       fill="#D0CFCE"
       d="M47.4505,56.1123h-22.901c-4.7022,0-8.5495-3.8473-8.5495-8.5495v-22.901 c0-4.7022,3.8473-8.5495,8.5495-8.5495h22.901c4.7022,0,8.5495,3.8473,8.5495,8.5495v22.901 C56,52.2649,52.1527,56.1123,47.4505,56.1123z"
       id="path13218"
       style="fill:#e9e8e8;fill-opacity:1" />
    <path
       fill="#9B9B9A"
       d="M35.4977,56.1115h13.2865c3.9687,0,7.2158-3.8473,7.2158-8.5495V24.661 c0-4.7022-3.2471-8.5495-7.2158-8.5495h-2.3526"
       id="path13220"
       style="fill:#cfcfce;fill-opacity:1" />
    <ellipse
       cx="44.8346"
       cy="29.0027"
       rx="2.8338"
       ry="2.8338"
       fill="#FFFFFF"
       id="ellipse13222" />
    <ellipse
       cx="27.3342"
       cy="29.0022"
       rx="2.8338"
       ry="2.8338"
       fill="#FFFFFF"
       id="ellipse13224" />
    <path
       fill="#FFFFFF"
       d="M44.5,47.5005h-17c-2.2,0-4-1.8-4-4l0,0c0-2.2,1.8-4,4-4h17c2.2,0,4,1.8,4,4l0,0 C48.5,45.7005,46.7,47.5005,44.5,47.5005z"
       id="path13226" />
  </g>
  <g
     id="hair" />
  <g
     id="skin" />
  <g
     id="skin-shadow" />
  <g
     id="line">
    <path
       fill="none"
       stroke="#000000"
       stroke-linecap="round"
       stroke-linejoin="round"
       stroke-miterlimit="2"
       stroke-width="2"
       d="M34,16.0109V13.5c0-1.3807,1.1193-2.5,2.5-2.5l0,0c1.3807,0,2.5,1.1193,2.5,2.5V16"
       id="path13232" />
    <path
       fill="none"
       stroke="#000000"
       stroke-linecap="round"
       stroke-linejoin="round"
       stroke-miterlimit="2"
       stroke-width="2"
       d="M47.4505,56h-22.901C19.8473,56,16,52.1527,16,47.4505v-22.901C16,19.8473,19.8473,16,24.5495,16h22.901 C52.1527,16,56,19.8473,56,24.5495v22.901C56,52.1527,52.1527,56,47.4505,56z"
       id="path13234" />
    <ellipse
       cx="44.8346"
       cy="29.0022"
       rx="2.8338"
       ry="2.8338"
       fill="none"
       stroke="#000000"
       stroke-linecap="round"
       stroke-linejoin="round"
       stroke-miterlimit="2"
       stroke-width="2"
       id="ellipse13236" />
    <ellipse
       cx="27.3342"
       cy="29.0017"
       rx="2.8338"
       ry="2.8338"
       fill="none"
       stroke="#000000"
       stroke-linecap="round"
       stroke-linejoin="round"
       stroke-miterlimit="2"
       stroke-width="2"
       id="ellipse13238" />
    <path
       fill="none"
       stroke="#000000"
       stroke-miterlimit="2"
       stroke-width="2"
       d="M44.5,47.5h-17c-2.2,0-4-1.8-4-4l0,0 c0-2.2,1.8-4,4-4h17c2.2,0,4,1.8,4,4l0,0C48.5,45.7,46.7,47.5,44.5,47.5z"
       id="path13240" />
    <path
       fill="none"
       stroke="#000000"
       stroke-linecap="round"
       stroke-linejoin="round"
       stroke-miterlimit="2"
       stroke-width="2"
       d="M13.5,41L13.5,41c-1.3807,0-2.5-1.1193-2.5-2.5v-8c0-1.3807,1.1193-2.5,2.5-2.5l0,0c1.3807,0,2.5,1.1193,2.5,2.5v8 C16,39.8807,14.8807,41,13.5,41z"
       id="path13242" />
    <path
       fill="none"
       stroke="#000000"
       stroke-linecap="round"
       stroke-linejoin="round"
       stroke-miterlimit="2"
       stroke-width="2"
       d="M58.5,41L58.5,41c1.3807,0,2.5-1.1193,2.5-2.5v-8c0-1.3807-1.1193-2.5-2.5-2.5l0,0c-1.3807,0-2.5,1.1193-2.5,2.5v8 C56,39.8807,57.1193,41,58.5,41z"
       id="path13244" />
    <line
       x1="28"
       x2="28"
       y1="40"
       y2="47"
       fill="none"
       stroke="#000000"
       stroke-linecap="round"
       stroke-linejoin="round"
       stroke-miterlimit="2"
       stroke-width="2"
       id="line13246" />
    <line
       x1="33"
       x2="33"
       y1="40"
       y2="47"
       fill="none"
       stroke="#000000"
       stroke-linecap="round"
       stroke-linejoin="round"
       stroke-miterlimit="2"
       stroke-width="2"
       id="line13248" />
    <line
       x1="38"
       x2="38"
       y1="40"
       y2="47"
       fill="none"
       stroke="#000000"
       stroke-linecap="round"
       stroke-linejoin="round"
       stroke-miterlimit="2"
       stroke-width="2"
       id="line13250" />
    <line
       x1="43"
       x2="43"
       y1="40"
       y2="47"
       fill="none"
       stroke="#000000"
       stroke-linecap="round"
       stroke-linejoin="round"
       stroke-miterlimit="2"
       stroke-width="2"
       id="line13252" />
  </g>
</svg>
