<?xml version="1.0" encoding="UTF-8" standalone="no"?>
<!-- Created with Inkscape (http://www.inkscape.org/) -->

<svg
   width="200"
   height="200"
   viewBox="0 0 52.916665 52.916666"
   version="1.1"
   id="svg5"
   xml:space="preserve"
   inkscape:version="1.2.1 (9c6d41e, 2022-07-14)"
   sodipodi:docname="logo.svg"
   xmlns:inkscape="http://www.inkscape.org/namespaces/inkscape"
   xmlns:sodipodi="http://sodipodi.sourceforge.net/DTD/sodipodi-0.dtd"
   xmlns="http://www.w3.org/2000/svg"
   xmlns:svg="http://www.w3.org/2000/svg"><sodipodi:namedview
     id="namedview7"
     pagecolor="#ffffff"
     bordercolor="#000000"
     borderopacity="0.25"
     inkscape:showpageshadow="2"
     inkscape:pageopacity="0.0"
     inkscape:pagecheckerboard="0"
     inkscape:deskcolor="#d1d1d1"
     inkscape:document-units="mm"
     showgrid="false"
     inkscape:zoom="1.8090866"
     inkscape:cx="107.7892"
     inkscape:cy="87.060507"
     inkscape:window-width="1549"
     inkscape:window-height="1051"
     inkscape:window-x="179"
     inkscape:window-y="38"
     inkscape:window-maximized="0"
     inkscape:current-layer="layer2" /><defs
     id="defs2"><filter
       inkscape:collect="always"
       style="color-interpolation-filters:sRGB"
       id="filter15711"
       x="-0.025514091"
       y="-0.028342124"
       width="1.0510282"
       height="1.0566842"><feGaussianBlur
         inkscape:collect="always"
         stdDeviation="0.53154356"
         id="feGaussianBlur15713" /></filter><filter
       inkscape:collect="always"
       style="color-interpolation-filters:sRGB"
       id="filter15715"
       x="-0.048882708"
       y="-0.05193119"
       width="1.0977655"
       height="1.1061101"><feGaussianBlur
         inkscape:collect="always"
         stdDeviation="0.48684622"
         id="feGaussianBlur15717" /></filter><filter
       style="color-interpolation-filters:sRGB;"
       inkscape:label="Drop Shadow"
       id="filter19579"
       x="-0.019095144"
       y="-0.01586204"
       width="1.0726676"
       height="1.0669731"><feFlood
         flood-opacity="0.498039"
         flood-color="rgb(0,0,0)"
         result="flood"
         id="feFlood19569" /><feComposite
         in="flood"
         in2="SourceGraphic"
         operator="in"
         result="composite1"
         id="feComposite19571" /><feGaussianBlur
         in="composite1"
         stdDeviation="0.3"
         result="blur"
         id="feGaussianBlur19573" /><feOffset
         dx="1.3"
         dy="1.6"
         result="offset"
         id="feOffset19575" /><feComposite
         in="SourceGraphic"
         in2="offset"
         operator="over"
         result="composite2"
         id="feComposite19577" /></filter></defs><g
     inkscape:groupmode="layer"
     id="layer3"
     inkscape:label="Layer 3" /><g
     inkscape:label="Layer 1"
     inkscape:groupmode="layer"
     id="layer1"><g
       id="g15342"
       transform="matrix(0.9705326,0,0,0.9705326,-8.4808403,-6.0545088)"
       style="filter:url(#filter15715);opacity:0.6601626"><g
         id="color"
         style="filter:url(#filter15711)"><path
           fill="#D22F27"
           d="m 34,16.1123 v -2.5109 c 0,-1.3807 1.1193,-2.5 2.5,-2.5 v 0 c 1.3807,0 2.5,1.1193 2.5,2.5 v 2.5"
           id="path13212"
           style="fill:#e57c79;fill-opacity:1" /><path
           fill="#D0CFCE"
           d="m 13.5,41.1014 v 0 c -1.3807,0 -2.5,-1.1193 -2.5,-2.5 v -8 c 0,-1.3807 1.1193,-2.5 2.5,-2.5 v 0 c 1.3807,0 2.5,1.1193 2.5,2.5 v 8 c 0,1.3807 -1.1193,2.5 -2.5,2.5 z"
           id="path13214"
           style="fill:#e9e8e8;fill-opacity:1" /><path
           fill="#d0cfce"
           d="m 58.5,41.1014 v 0 c 1.3807,0 2.5,-1.1193 2.5,-2.5 v -8 c 0,-1.3807 -1.1193,-2.5 -2.5,-2.5 v 0 c -1.3807,0 -2.5,1.1193 -2.5,2.5 v 8 c 0,1.3807 1.1193,2.5 2.5,2.5 z"
           id="path13216" /><path
           fill="#D0CFCE"
           d="M 47.4505,56.1123 H 24.5495 C 19.8473,56.1123 16,52.265 16,47.5628 v -22.901 c 0,-4.7022 3.8473,-8.5495 8.5495,-8.5495 h 22.901 c 4.7022,0 8.5495,3.8473 8.5495,8.5495 v 22.901 c 0,4.7021 -3.8473,8.5495 -8.5495,8.5495 z"
           id="path13218"
           style="fill:#e9e8e8;fill-opacity:1" /><path
           fill="#9B9B9A"
           d="M 35.4977,56.1115 H 48.7842 C 52.7529,56.1115 56,52.2642 56,47.562 V 24.661 c 0,-4.7022 -3.2471,-8.5495 -7.2158,-8.5495 h -2.3526"
           id="path13220"
           style="fill:#cfcfce;fill-opacity:1" /><circle
           cx="44.834599"
           cy="29.002701"
           fill="#ffffff"
           id="ellipse13222"
           r="2.8338001" /><circle
           cx="27.3342"
           cy="29.002199"
           fill="#ffffff"
           id="ellipse13224"
           r="2.8338001" /><path
           fill="#ffffff"
           d="m 44.5,47.5005 h -17 c -2.2,0 -4,-1.8 -4,-4 v 0 c 0,-2.2 1.8,-4 4,-4 h 17 c 2.2,0 4,1.8 4,4 v 0 c 0,2.2 -1.8,4 -4,4 z"
           id="path13226" /></g><g
         id="hair" /><g
         id="skin" /><g
         id="skin-shadow" /><g
         id="line"><path
           fill="none"
           stroke="#000000"
           stroke-linecap="round"
           stroke-linejoin="round"
           stroke-miterlimit="2"
           stroke-width="2"
           d="M 34,16.0109 V 13.5 C 34,12.1193 35.1193,11 36.5,11 v 0 c 1.3807,0 2.5,1.1193 2.5,2.5 V 16"
           id="path13232" /><path
           fill="none"
           stroke="#000000"
           stroke-linecap="round"
           stroke-linejoin="round"
           stroke-miterlimit="2"
           stroke-width="2"
           d="M 47.4505,56 H 24.5495 C 19.8473,56 16,52.1527 16,47.4505 V 24.5495 C 16,19.8473 19.8473,16 24.5495,16 h 22.901 C 52.1527,16 56,19.8473 56,24.5495 v 22.901 C 56,52.1527 52.1527,56 47.4505,56 Z"
           id="path13234" /><circle
           cx="44.834599"
           cy="29.002199"
           fill="none"
           stroke="#000000"
           stroke-linecap="round"
           stroke-linejoin="round"
           stroke-miterlimit="2"
           stroke-width="2"
           id="ellipse13236"
           r="2.8338001" /><circle
           cx="27.3342"
           cy="29.001699"
           fill="none"
           stroke="#000000"
           stroke-linecap="round"
           stroke-linejoin="round"
           stroke-miterlimit="2"
           stroke-width="2"
           id="ellipse13238"
           r="2.8338001" /><path
           fill="none"
           stroke="#000000"
           stroke-miterlimit="2"
           stroke-width="2"
           d="m 44.5,47.5 h -17 c -2.2,0 -4,-1.8 -4,-4 v 0 c 0,-2.2 1.8,-4 4,-4 h 17 c 2.2,0 4,1.8 4,4 v 0 c 0,2.2 -1.8,4 -4,4 z"
           id="path13240" /><path
           fill="none"
           stroke="#000000"
           stroke-linecap="round"
           stroke-linejoin="round"
           stroke-miterlimit="2"
           stroke-width="2"
           d="m 13.5,41 v 0 C 12.1193,41 11,39.8807 11,38.5 v -8 C 11,29.1193 12.1193,28 13.5,28 v 0 c 1.3807,0 2.5,1.1193 2.5,2.5 v 8 c 0,1.3807 -1.1193,2.5 -2.5,2.5 z"
           id="path13242" /><path
           fill="none"
           stroke="#000000"
           stroke-linecap="round"
           stroke-linejoin="round"
           stroke-miterlimit="2"
           stroke-width="2"
           d="m 58.5,41 v 0 c 1.3807,0 2.5,-1.1193 2.5,-2.5 v -8 C 61,29.1193 59.8807,28 58.5,28 v 0 C 57.1193,28 56,29.1193 56,30.5 v 8 c 0,1.3807 1.1193,2.5 2.5,2.5 z"
           id="path13244" /><line
           x1="28"
           x2="28"
           y1="40"
           y2="47"
           fill="none"
           stroke="#000000"
           stroke-linecap="round"
           stroke-linejoin="round"
           stroke-miterlimit="2"
           stroke-width="2"
           id="line13246" /><line
           x1="33"
           x2="33"
           y1="40"
           y2="47"
           fill="none"
           stroke="#000000"
           stroke-linecap="round"
           stroke-linejoin="round"
           stroke-miterlimit="2"
           stroke-width="2"
           id="line13248" /><line
           x1="38"
           x2="38"
           y1="40"
           y2="47"
           fill="none"
           stroke="#000000"
           stroke-linecap="round"
           stroke-linejoin="round"
           stroke-miterlimit="2"
           stroke-width="2"
           id="line13250" /><line
           x1="43"
           x2="43"
           y1="40"
           y2="47"
           fill="none"
           stroke="#000000"
           stroke-linecap="round"
           stroke-linejoin="round"
           stroke-miterlimit="2"
           stroke-width="2"
           id="line13252" /></g></g><g
       inkscape:groupmode="layer"
       id="layer2"
       inkscape:label="Layer 2"><g
         aria-label="Lin
511"
         id="text17232"
         style="font-size:21.7986px;font-family:'Fira Code';-inkscape-font-specification:'Fira Code';text-align:center;text-anchor:middle;opacity:1;fill:#976eef;fill-opacity:1;stroke-width:3.86197;stroke-linejoin:round;filter:url(#filter19579)"
         transform="matrix(1.0569346,0,0,1.0569346,-2.10867,-1.2304969)"><path
           d="M 8.7660475,20.50938 V 5.049143 H 11.82903 v 12.978551 h 6.819049 l -0.324184,2.481686 z"
           style="font-weight:600;-inkscape-font-specification:'Fira Code Semi-Bold';fill:#976eef;fill-opacity:1"
           id="path19292" /><path
           d="m 26.462007,2.7016016 q 0.804871,0 1.319094,0.5030446 0.514224,0.5030446 0.514224,1.2520221 0,0.7489775 -0.514224,1.2632009 -0.514223,0.5030446 -1.319094,0.5030446 -0.816051,0 -1.330274,-0.5030446 -0.514223,-0.5142234 -0.514223,-1.2632009 0,-0.7489775 0.514223,-1.2520221 0.514223,-0.5030446 1.330274,-0.5030446 z m 1.911569,5.9694625 v 9.7478869 h 3.118877 v 2.090429 h -9.53549 v -2.090429 h 3.465418 V 10.761494 H 22.06875 V 8.6710641 Z"
           style="font-weight:600;-inkscape-font-specification:'Fira Code Semi-Bold';fill:#976eef;fill-opacity:1"
           id="path19294" /><path
           d="M 34.980197,20.50938 V 8.6710641 h 2.571116 l 0.212397,1.4644189 q 1.531491,-1.7997819 3.756066,-1.7997819 1.587386,0 2.425793,0.9278378 0.849587,0.9166591 0.849587,2.5822951 v 8.663546 h -2.951195 v -7.512132 q 0,-1.341453 -0.27947,-1.900391 -0.26829,-0.558938 -1.162592,-0.558938 -0.72662,0 -1.352631,0.458329 -0.626011,0.45833 -1.117876,1.117877 v 8.395255 z"
           style="font-weight:600;-inkscape-font-specification:'Fira Code Semi-Bold';fill:#976eef;fill-opacity:1"
           id="path19296" /><path
           d="m 17.64199,32.297392 -0.346542,2.168681 h -5.81296 v 3.867854 q 0.614833,-0.301826 1.229665,-0.424793 0.614832,-0.122966 1.184949,-0.122966 1.218486,0 2.191039,0.592474 0.972553,0.592475 1.54267,1.710352 0.570117,1.106698 0.570117,2.660547 0,1.553849 -0.72662,2.761156 -0.715441,1.207307 -2.012178,1.900391 -1.296737,0.681904 -3.040625,0.681904 -1.576207,0 -2.8058711,-0.581296 -1.2184858,-0.581295 -2.0904298,-1.565027 l 1.7215304,-1.598564 q 1.2184855,1.442061 3.0070885,1.442061 1.330274,0 2.112788,-0.804871 0.782513,-0.804872 0.782513,-2.224575 0,-1.576207 -0.659547,-2.224575 -0.659547,-0.648369 -1.676815,-0.648369 -1.006089,0 -2.079251,0.514223 H 8.6654385 v -8.104607 z"
           style="font-weight:600;-inkscape-font-specification:'Fira Code Semi-Bold';fill:#976eef;fill-opacity:1"
           id="path19298" /><path
           d="m 31.816637,45.488339 v 2.26929 h -9.647278 v -2.26929 h 3.744888 V 35.270945 l -3.297737,2.045714 -1.263201,-2.045714 4.851586,-2.973553 h 2.604653 v 13.190947 z"
           style="font-weight:600;-inkscape-font-specification:'Fira Code Semi-Bold';fill:#976eef;fill-opacity:1"
           id="path19300" /><path
           d="m 45.231128,45.488339 v 2.26929 H 35.58385 v -2.26929 h 3.744888 V 35.270945 l -3.297737,2.045714 -1.263201,-2.045714 4.851586,-2.973553 h 2.604653 v 13.190947 z"
           style="font-weight:600;-inkscape-font-specification:'Fira Code Semi-Bold';fill:#976eef;fill-opacity:1"
           id="path19302" /></g></g></g></svg>
